<svg xmlns="http://www.w3.org/2000/svg" version="1.1" xmlns:xlink="http://www.w3.org/1999/xlink" width="1500" height="1500" viewBox="0 0 1500 1500"><rect width="1500" height="1500" x="0" y="0" id="background" stroke="transparent" fill="#000000"></rect><svg xml:space="preserve" width="1000" height="1000" data-version="2" data-id="lg_ZA8tC7n70qGHTxajnf" viewBox="0 0 560 147" x="250" y="250"><rect width="100%" height="100%" fill="transparent"></rect><path fill="#cccccc" d="M85.55 27.795q0 8.7-4.25 14.7t-14.55 8.7q1.2 1.6 1.7 2.5l16.2 22.5h-27.2q-4.4-8.2-13.9-23.2h-14.7v23.2H5.25q.8-19.4.8-36.3t-.8-36.3h23.6v.1h20.5q20.2 0 28.2 6.5t8 17.6m-56.7-4.9v11.4h13.5q8.5 0 12.85-.55t6.05-1.75q1.7-1.2 1.7-3.5 0-2.2-1.6-3.4-1.6-1.2-6-1.7t-13-.5Z"></path><rect width="80.3" height="72.6" x="-40.15" y="-36.3" fill="none" rx="0" ry="0" transform="translate(45.9 40.4)"></rect><path fill="#cccccc" d="M150.65 76.195q-1.9-5.7-5.1-14.3h-31.9l-5 14.3h-25.1l28-72.6h36.8l28.2 72.6Zm-10.8-29.9q-3.8-10.5-7.8-21l-2.4-6.5q-3.5 9.1-10.3 27.5Z"></path><rect width="93" height="72.6" x="-46.5" y="-36.3" fill="none" rx="0" ry="0" transform="translate(130.55 40.4)"></rect><path fill="#cccccc" d="m245.85 48.895 5.2-45.3h24.4l-13.4 72.6h-30.7l-6.8-40.5-7.9 40.5h-29.4l-13.4-72.6h24.4l5.1 44.7 8-44.7h26.7Z"></path><rect width="101.6" height="72.6" x="-50.8" y="-36.3" fill="none" rx="0" ry="0" transform="translate(225.15 40.4)"></rect><path fill="#cccccc" d="M367.35 3.695q-.7 16.9-.7 36.2 0 19.4.7 36.3h-35.8l-24.2-54.6 1.8 54.6h-25.7q.8-19.4.8-36.3 0-16.8-.8-36.2h36.8l24.3 56.1-1.7-56.1Z"></path><rect width="83.9" height="72.5" x="-41.95" y="-36.25" fill="none" rx="0" ry="0" transform="translate(325.9 40.45)"></rect><path fill="#cccccc" d="M438.45 76.195q-1.9-5.7-5.1-14.3h-31.9l-5 14.3h-25.1l28-72.6h36.8l28.2 72.6Zm-10.8-29.9q-3.8-10.5-7.8-21l-2.4-6.5q-3.5 9.1-10.3 27.5Z"></path><rect width="93" height="72.6" x="-46.5" y="-36.3" fill="none" rx="0" ry="0" transform="translate(418.35 40.4)"></rect><path fill="#cccccc" d="M553.75 39.295q0 31.2-30.3 36.7 5.5 2.6 12.7 5-6.7 5.7-17.6 15.2-11.2-8.6-19.1-19.5-17.9-2.1-26.35-11.8-8.45-9.7-8.45-25.6 0-17.8 10.75-27.8t33.75-10q23.1 0 33.85 10t10.75 27.8m-44.6 17.5q11.1 0 16-4.25t4.9-13.25q0-8.8-4.9-13.1-4.9-4.3-16-4.3-11 0-15.9 4.3t-4.9 13.1q0 8.9 4.9 13.2 4.9 4.3 15.9 4.3"></path><rect width="89.1" height="94.7" x="-44.55" y="-47.35" fill="none" rx="0" ry="0" transform="translate(509.7 49.34)"></rect><path fill="#cccccc" d="m110 136.075 5.28-24.98h6.46q2.32 0 3.97.6 1.65.61 2.52 1.86.87 1.24.87 3.19 0 1.71-.7 3.01-.7 1.3-1.97 2.13-1.28.83-2.98 1.15v.16q1.74.47 2.88 1.75 1.15 1.27 1.15 3.36 0 2.56-1.25 4.29-1.25 1.74-3.42 2.61-2.17.87-4.97.87Zm3.4-2.48h4.58q2.01 0 3.46-.6 1.44-.61 2.23-1.79.78-1.18.78-2.9 0-1.8-1.16-2.94-1.16-1.15-3.81-1.15h-4.1Zm2.49-11.79h4.27q1.66 0 3-.5 1.35-.51 2.15-1.56.8-1.05.8-2.66 0-1.7-1.11-2.61-1.11-.91-3.62-.91h-3.73Z"></path><rect width="19.1" height="24.98" x="-9.55" y="-12.49" fill="none" rx="0" ry="0" transform="translate(120.05 124.08)"></rect><path fill="#cccccc" d="M138.02 136.415q-2.1 0-3.62-.84-1.52-.85-2.33-2.43t-.81-3.79q0-2.27.65-4.46.66-2.2 1.89-3.99 1.23-1.78 2.97-2.84 1.73-1.06 3.89-1.06 2.58 0 3.91 1.15 1.33 1.16 1.33 3.17 0 1.42-.66 2.62-.65 1.19-2.01 2.07-1.36.88-3.44 1.37-2.07.49-4.91.49h-.65q-.03.31-.06.68-.03.38-.03.7 0 2.26 1.1 3.53 1.09 1.27 3.28 1.27 1.35 0 2.55-.38 1.21-.38 2.52-1.02v2.45q-1.26.58-2.54.95-1.28.36-3.03.36m-3.38-10.87h.41q2.19 0 4.02-.38 1.82-.39 2.94-1.27 1.11-.88 1.11-2.35 0-.95-.65-1.57-.65-.61-1.99-.61-1.17 0-2.32.72-1.14.73-2.08 2.11-.93 1.39-1.44 3.35"></path><rect width="14.64" height="19.41" x="-7.32" y="-9.71" fill="none" rx="0" ry="0" transform="translate(139.08 127.21)"></rect><path fill="#cccccc" d="M153.73 136.415q-1.52 0-2.67-.73-1.14-.74-1.77-2.17-.64-1.44-.64-3.51 0-2.06.44-3.98.43-1.91 1.24-3.55.8-1.64 1.94-2.87 1.13-1.23 2.55-1.92 1.42-.68 3.06-.68 1.27 0 2.2.48.93.48 1.55 1.25.63.78.99 1.65h.17l1.09-3.04h2.17l-3.96 18.73h-2.28l.52-3.62h-.14q-.77 1.02-1.76 1.93-.99.9-2.17 1.47-1.18.56-2.53.56m.92-2.36q1.32 0 2.61-.96 1.29-.97 2.32-2.62 1.04-1.65 1.58-3.71.28-1.01.37-1.86.09-.84.09-1.58 0-1.76-.93-2.84-.93-1.09-2.53-1.09-1.15 0-2.16.57-1.01.58-1.82 1.59-.81 1.02-1.39 2.36-.58 1.34-.9 2.92-.31 1.57-.31 3.23 0 1.96.8 2.98.8 1.01 2.27 1.01"></path><rect width="17.4" height="19.41" x="-8.7" y="-9.71" fill="none" rx="0" ry="0" transform="translate(157.85 127.21)"></rect><path fill="#cccccc" d="M173.37 136.415q-1.42 0-2.48-.53t-1.63-1.56q-.58-1.03-.58-2.54 0-.75.11-1.46t.25-1.48l2.48-11.5h2.87l-2.55 11.83q-.13.73-.21 1.3-.08.58-.08 1.02 0 1.21.63 1.89.62.67 1.99.67 1.28 0 2.69-.87t2.61-2.74q1.21-1.87 1.84-4.86l1.75-8.24h2.8l-3.97 18.73h-2.34l.46-3.62h-.15q-.65.89-1.57 1.8-.93.92-2.14 1.54t-2.78.62"></path><rect width="17.18" height="19.07" x="-8.59" y="-9.54" fill="none" rx="0" ry="0" transform="translate(177.77 127.38)"></rect><path fill="#cccccc" d="M193.24 136.415q-1.86 0-3.1-.89-1.24-.9-1.24-3.09 0-.53.07-1.15.07-.63.22-1.29l2.2-10.48h-2.88l.27-1.32 3.11-1.19 2.05-3.97h1.69l-.94 4.31h4.82l-.44 2.17h-4.8l-2.23 10.51q-.12.48-.21 1.03-.09.54-.09 1.04 0 .85.44 1.43.45.57 1.49.57.65 0 1.24-.12t1.25-.34v2.18q-.42.21-1.29.41-.86.19-1.63.19"></path><rect width="11" height="23.38" x="-5.5" y="-11.69" fill="none" rx="0" ry="0" transform="translate(194.51 125.22)"></rect><path fill="#cccccc" d="M197.46 144.505q-.84 0-1.36-.11-.52-.1-1.01-.25v-2.31q.46.12 1.02.21.57.1 1.2.1 1.4 0 2.41-.89 1.01-.89 1.96-2.62l1.32-2.34-2.87-18.95H203l1.3 9.62q.17 1.13.27 2.42t.15 2.44q.06 1.16.06 1.88h.1q.24-.57.72-1.64.48-1.06 1.02-2.23.55-1.16.98-1.95l5.62-10.54h3.04l-12 21.98q-.92 1.71-1.88 2.86-.97 1.15-2.15 1.74-1.18.58-2.77.58"></path><rect width="21.17" height="27.16" x="-10.59" y="-13.58" fill="none" rx="0" ry="0" transform="translate(206.18 131.43)"></rect><path fill="#cccccc" d="m225.1 136.075 5.28-24.98h4.08l2.6 20.73h.14l11.41-20.73h4.43l-5.2 24.98h-2.9l3.28-15.52q.31-1.4.6-2.63t.54-2.25q.24-1.01.45-1.73h-.07l-12.31 22.13h-2.27l-2.83-22.11h-.14q-.07.7-.23 1.78-.16 1.09-.38 2.31-.21 1.22-.45 2.35l-3.3 15.67Z"></path><rect width="27.94" height="24.98" x="-13.97" y="-12.49" fill="none" rx="0" ry="0" transform="translate(239.57 124.08)"></rect><path fill="#cccccc" d="M261.45 136.415q-2.11 0-3.63-.84-1.52-.85-2.33-2.43t-.81-3.79q0-2.27.66-4.46.65-2.2 1.88-3.99 1.24-1.78 2.97-2.84 1.73-1.06 3.89-1.06 2.58 0 3.91 1.15 1.33 1.16 1.33 3.17 0 1.42-.65 2.62-.66 1.19-2.02 2.07-1.36.88-3.44 1.37-2.07.49-4.91.49h-.65q-.03.31-.06.68-.02.38-.02.7 0 2.26 1.09 3.53t3.28 1.27q1.35 0 2.56-.38 1.2-.38 2.52-1.02v2.45q-1.27.58-2.55.95-1.28.36-3.02.36m-3.39-10.87h.41q2.19 0 4.02-.38 1.83-.39 2.94-1.27 1.11-.88 1.11-2.35 0-.95-.65-1.57-.65-.61-1.98-.61-1.18 0-2.33.72-1.14.73-2.07 2.11-.93 1.39-1.45 3.35"></path><rect width="14.64" height="19.41" x="-7.32" y="-9.71" fill="none" rx="0" ry="0" transform="translate(262.5 127.21)"></rect><path fill="#cccccc" d="M278.88 136.415q-2.1 0-3.63-.84-1.52-.85-2.33-2.43t-.81-3.79q0-2.27.66-4.46.66-2.2 1.89-3.99 1.23-1.78 2.96-2.84 1.74-1.06 3.89-1.06 2.58 0 3.91 1.15 1.34 1.16 1.34 3.17 0 1.42-.66 2.62-.66 1.19-2.02 2.07-1.36.88-3.43 1.37-2.08.49-4.92.49h-.65q-.03.31-.06.68-.02.38-.02.7 0 2.26 1.09 3.53 1.1 1.27 3.28 1.27 1.35 0 2.56-.38 1.2-.38 2.52-1.02v2.45q-1.27.58-2.55.95-1.28.36-3.02.36m-3.39-10.87h.41q2.19 0 4.02-.38 1.83-.39 2.94-1.27 1.11-.88 1.11-2.35 0-.95-.65-1.57-.65-.61-1.98-.61-1.18 0-2.33.72-1.14.73-2.07 2.11-.93 1.39-1.45 3.35"></path><rect width="14.65" height="19.41" x="-7.33" y="-9.71" fill="none" rx="0" ry="0" transform="translate(279.94 127.21)"></rect><path fill="#cccccc" d="M294.14 136.415q-1.86 0-3.1-.89-1.24-.9-1.24-3.09 0-.53.07-1.15.06-.63.22-1.29l2.2-10.48h-2.88l.27-1.32 3.11-1.19 2.05-3.97h1.69l-.94 4.31h4.82l-.44 2.17h-4.81l-2.22 10.51q-.12.48-.21 1.03-.09.54-.09 1.04 0 .85.44 1.43.44.57 1.49.57.65 0 1.24-.12.58-.12 1.25-.34v2.18q-.43.21-1.29.41-.86.19-1.63.19"></path><rect width="11" height="23.38" x="-5.5" y="-11.69" fill="none" rx="0" ry="0" transform="translate(295.41 125.22)"></rect><path fill="#cccccc" d="M304.8 136.415q-1.71 0-3-.34t-2.24-.85v-2.64q.9.55 2.3 1.03 1.39.48 2.86.48 1.45 0 2.42-.39.96-.4 1.45-1.09.49-.69.49-1.61 0-.74-.32-1.28t-1.03-1.05q-.71-.51-1.88-1.18-1.32-.73-2.23-1.49-.9-.75-1.37-1.64-.47-.9-.47-2.1 0-1.6.78-2.78.79-1.18 2.22-1.83 1.42-.65 3.34-.65 1.69 0 3.13.38 1.43.39 2.47.88l-.92 2.28q-.89-.43-2.03-.79-1.15-.36-2.65-.36-1.61 0-2.56.74-.94.73-.94 1.98 0 .65.28 1.16.28.51.98 1.02.7.5 1.91 1.17 1.18.68 2.13 1.39.95.71 1.51 1.62.55.92.55 2.25 0 1.83-.87 3.1-.87 1.28-2.49 1.93-1.61.66-3.82.66"></path><rect width="14.16" height="19.41" x="-7.08" y="-9.71" fill="none" rx="0" ry="0" transform="translate(307.14 127.21)"></rect><path fill="#cccccc" d="M334.95 136.415q-2.79 0-4.76-1.16-1.97-1.16-3.03-3.31-1.06-2.14-1.06-5.1 0-2.32.54-4.64.55-2.31 1.64-4.37 1.08-2.06 2.7-3.66 1.63-1.6 3.79-2.52 2.16-.92 4.85-.92 1.77 0 3.25.34t2.78 1.04l-1.15 2.41q-.99-.53-2.18-.88-1.18-.35-2.7-.35-2.11 0-3.78.76-1.68.76-2.93 2.09-1.26 1.32-2.09 3.05-.83 1.72-1.25 3.66-.41 1.94-.41 3.92 0 3.29 1.66 5.19 1.67 1.91 4.63 1.91 1.48 0 2.87-.29 1.4-.29 2.71-.74v2.53q-1.33.48-2.74.76-1.41.28-3.34.28"></path><rect width="19.55" height="25.68" x="-9.78" y="-12.84" fill="none" rx="0" ry="0" transform="translate(336.38 124.08)"></rect><path fill="#cccccc" d="M352.74 136.345q-2.15 0-3.71-.88-1.55-.88-2.38-2.49-.83-1.62-.83-3.82 0-1.78.39-3.51.39-1.74 1.16-3.28.77-1.55 1.91-2.74 1.14-1.19 2.62-1.86 1.49-.68 3.32-.68 2.19 0 3.73.88 1.55.88 2.38 2.51.83 1.62.83 3.84 0 1.75-.39 3.47-.38 1.73-1.14 3.28-.76 1.54-1.9 2.73t-2.63 1.87q-1.5.68-3.36.68m.17-2.35q1.06 0 2.02-.45.95-.44 1.74-1.29.79-.84 1.36-2.07.57-1.22.89-2.77.31-1.56.31-3.42 0-1.11-.39-2.15-.39-1.05-1.26-1.72-.88-.68-2.33-.68-1.19 0-2.21.5-1.02.49-1.82 1.4-.8.91-1.36 2.14-.55 1.23-.85 2.7-.3 1.47-.3 3.09 0 2.24 1.09 3.48 1.09 1.24 3.11 1.24"></path><rect width="16.34" height="19.26" x="-8.17" y="-9.63" fill="none" rx="0" ry="0" transform="translate(354.49 127.22)"></rect><path fill="#cccccc" d="m364.81 136.075 3.98-18.73h2.32l-.44 3.62h.17q.61-.89 1.49-1.8.87-.91 2.02-1.54 1.15-.62 2.62-.62 1.99 0 3.01 1.14 1.03 1.15 1.2 3.13h.12q.68-1.04 1.64-2.02.95-.99 2.18-1.62 1.22-.63 2.69-.63 2.17 0 3.35 1.18 1.18 1.18 1.18 3.42 0 .8-.1 1.52-.09.71-.28 1.47l-2.43 11.48h-2.87l2.53-11.79q.16-.77.23-1.33.08-.57.08-1.08 0-1.15-.61-1.81-.62-.67-1.9-.67-.91 0-1.88.5-.98.49-1.89 1.49-.91 1-1.65 2.52-.73 1.52-1.18 3.57l-1.83 8.6h-2.83l2.49-11.74q.15-.79.23-1.36.08-.57.08-.98 0-1.21-.57-1.91-.56-.69-1.84-.69-.91 0-1.89.48-.98.48-1.9 1.5-.93 1.03-1.7 2.62-.77 1.59-1.23 3.83l-1.74 8.25Z"></path><rect width="27.53" height="19.07" x="-13.77" y="-9.54" fill="none" rx="0" ry="0" transform="translate(379.07 127.04)"></rect><path fill="#cccccc" d="M392.56 144.485q-.67 0-1.23-.1-.56-.11-.99-.26v-2.41q.46.17.94.28.48.11 1.02.11 1.27 0 1.97-1 .7-1.01 1.13-2.93l3.93-18.66h-3.27l.24-1.21 3.47-1.05.41-1.81q.39-1.74.95-2.93.56-1.19 1.31-1.89.75-.71 1.75-1.02 1-.31 2.3-.31.85 0 1.75.2.9.19 1.46.45l-.73 2.17q-.52-.19-1.1-.33-.58-.15-1.26-.15-1.46 0-2.28.81-.83.82-1.31 3.02l-.43 1.88h4.03l-.41 2.17h-4.05l-4 18.99q-.41 1.88-1.11 3.22-.7 1.34-1.79 2.05-1.09.71-2.7.71"></path><rect width="19.36" height="35.19" x="-9.68" y="-17.59" fill="none" rx="0" ry="0" transform="translate(400.52 127.39)"></rect><path fill="#cccccc" d="M413.87 136.345q-2.15 0-3.71-.88-1.55-.88-2.38-2.49-.83-1.62-.83-3.82 0-1.78.39-3.51.4-1.74 1.16-3.28.77-1.55 1.91-2.74 1.14-1.19 2.62-1.86 1.49-.68 3.32-.68 2.19 0 3.73.88 1.55.88 2.38 2.51.83 1.62.83 3.84 0 1.75-.39 3.47-.38 1.73-1.14 3.28-.76 1.54-1.9 2.73t-2.63 1.87q-1.5.68-3.36.68m.17-2.35q1.06 0 2.02-.45.96-.44 1.74-1.29.79-.84 1.36-2.07.57-1.22.89-2.77.31-1.56.31-3.42 0-1.11-.39-2.15-.39-1.05-1.26-1.72-.87-.68-2.33-.68-1.19 0-2.21.5-1.02.49-1.82 1.4-.8.91-1.36 2.14-.55 1.23-.85 2.7-.3 1.47-.3 3.09 0 2.24 1.09 3.48 1.09 1.24 3.11 1.24"></path><rect width="16.34" height="19.26" x="-8.17" y="-9.63" fill="none" rx="0" ry="0" transform="translate(415.62 127.22)"></rect><path fill="#cccccc" d="m425.94 136.075 3.98-18.73h2.32l-.44 3.62h.17q.72-.97 1.54-1.88.82-.92 1.87-1.5 1.05-.58 2.42-.58.51 0 1.04.06t.99.19l-.62 2.55q-.46-.1-.89-.15-.44-.05-.9-.05-1.3 0-2.41.67-1.11.68-1.99 1.8-.88 1.13-1.49 2.52-.6 1.38-.91 2.82l-1.83 8.66Z"></path><rect width="13.89" height="19.07" x="-6.95" y="-9.54" fill="none" rx="0" ry="0" transform="translate(433.38 127.04)"></rect><path fill="#cccccc" d="M445.09 136.415q-1.86 0-3.1-.89-1.24-.9-1.24-3.09 0-.53.07-1.15.07-.63.22-1.29l2.21-10.48h-2.89l.27-1.32 3.11-1.19 2.05-3.97h1.7l-.94 4.31h4.82l-.45 2.17h-4.8l-2.22 10.51q-.12.48-.22 1.03-.09.54-.09 1.04 0 .85.44 1.43.45.57 1.49.57.65 0 1.24-.12t1.26-.34v2.18q-.43.21-1.29.41-.87.19-1.64.19"></path><rect width="11.01" height="23.38" x="-5.5" y="-11.69" fill="none" rx="0" ry="0" transform="translate(446.37 125.22)"></rect></svg></svg>